<svg width="20" height="21" viewBox="0 0 20 21" fill="none" xmlns="http://www.w3.org/2000/svg">
<path d="M17.1564 9.94369L3.40636 3.06869C3.29859 3.0148 3.17754 2.9932 3.05778 3.00651C2.93803 3.01981 2.82467 3.06746 2.73136 3.14369C2.64225 3.21838 2.57574 3.31643 2.5393 3.42685C2.50287 3.53726 2.49795 3.65564 2.52511 3.76869L4.37511 10.4999L2.50011 17.2124C2.47463 17.3069 2.47165 17.4059 2.49143 17.5017C2.5112 17.5975 2.55317 17.6873 2.61396 17.7639C2.67475 17.8405 2.75267 17.9017 2.84144 17.9427C2.93022 17.9837 3.02738 18.0033 3.12511 17.9999C3.22295 17.9994 3.31928 17.9758 3.40636 17.9312L17.1564 11.0562C17.2587 11.0037 17.3447 10.9241 17.4046 10.8259C17.4646 10.7278 17.4964 10.615 17.4964 10.4999C17.4964 10.3849 17.4646 10.2721 17.4046 10.174C17.3447 10.0758 17.2587 9.99614 17.1564 9.94369ZM4.09386 16.1937L5.47511 11.1249H11.2501V9.87494H5.47511L4.09386 4.80619L15.4751 10.4999L4.09386 16.1937Z" fill="#EB5757" stroke="#EB5757" stroke-width="0.5"/>
</svg>
